<svg width="49" height="36" viewBox="0 0 49 36" fill="none" xmlns="http://www.w3.org/2000/svg">
<path d="M40.3103 28.0148C40.4063 28.0725 40.7944 28.3039 40.8733 28.3511C41.1268 28.5029 41.3432 28.6342 41.5647 28.7713C42.1475 29.1319 42.6991 29.4922 43.2612 29.8853C44.7212 30.9062 46.1181 32.0561 47.4735 33.405C47.9248 33.8558 48.2802 34.2367 48.7276 34.7352C49.166 35.2237 48.819 36 48.1623 36H2.81258C2.35397 36 2.00004 35.597 2.05978 35.1427C2.25915 33.627 2.39307 32.0351 2.45515 30.3812C2.51577 28.7362 2.50288 27.1261 2.42435 25.5539C2.38911 25.2679 2.31795 25.0309 2.18147 24.8115C2.14789 24.7584 2.11585 24.7135 2.07803 24.6656C2.00352 24.575 1.94021 24.5003 1.945 24.506C1.9105 24.4652 1.88301 24.4323 1.86051 24.4045C1.54082 24.0213 1.24634 23.5555 0.990704 22.981C0.686026 22.0791 0.456709 21.1741 0.285323 20.2003C0.0795185 18.9976 -0.00823799 17.8337 0.00312702 16.7257C-0.0208832 16.1246 0.089595 15.5079 0.466068 14.8664C0.745562 14.3918 1.08121 14.0593 1.46486 13.7985C2.07379 12.0371 2.79124 10.4045 3.5962 8.88037C4.06615 8.00083 4.20442 7.74512 4.42724 7.35159C4.98714 6.36274 5.48363 5.62028 6.09512 4.89436C6.25879 4.70007 6.42984 4.50844 6.60701 4.32097C7.13772 3.75296 7.62132 3.28888 8.26644 2.77661C9.18863 2.04433 10.2104 1.42016 11.3521 0.941064C13.5171 0.0484101 15.7701 -0.168309 18.0002 0.119298C18.8146 0.224333 19.5819 0.392048 20.2926 0.602661C20.7735 0.745147 21.1483 0.881272 21.4763 1.01683C23.3009 1.76859 24.8308 2.866 26.0957 4.20054C26.9701 5.12304 27.5977 6.01529 28.1063 6.91399C28.141 6.9754 28.167 7.04134 28.1835 7.10992C28.4358 8.15822 28.6811 9.28077 28.9485 10.5922C28.9695 10.711 28.9871 10.8016 29.0192 10.9603C29.8116 11.3923 30.5509 11.9823 31.1923 12.8161C31.7812 13.5798 32.154 14.3818 32.3747 15.1788C32.6615 16.6792 32.7882 18.2093 32.7268 19.8133C32.691 20.6274 32.611 21.4173 32.4926 22.1733C35.2179 24.6322 37.7755 26.4955 40.3103 28.0148Z" fill="#D1D1D1"/>
<path fill-rule="evenodd" clip-rule="evenodd" d="M42.3904 31.128C41.8532 30.7523 41.325 30.4073 40.7651 30.0608C40.5507 29.9281 40.3403 29.8005 40.0926 29.6522C40.0159 29.6062 39.6263 29.374 39.5283 29.3151C36.8159 27.6893 34.0807 25.6835 31.1629 23.0157C30.971 22.8403 30.8824 22.579 30.928 22.3232C31.0734 21.5079 31.1704 20.6437 31.2097 19.751C31.2659 18.2814 31.1509 16.8753 30.9029 15.5535C30.7303 14.9435 30.4411 14.3277 29.9888 13.7411C29.4165 12.9971 28.7415 12.5 28.0175 12.1535C27.7979 12.0484 27.6421 11.8445 27.5986 11.6052C27.5823 11.5156 27.5732 11.47 27.5309 11.2609C27.4973 11.095 27.4778 10.9947 27.4585 10.8845C27.2041 9.63735 26.9704 8.56574 26.7322 7.56906C26.2891 6.80047 25.7432 6.03484 24.9931 5.24347C23.8688 4.0573 22.5132 3.08486 20.8965 2.41881C20.6132 2.30171 20.2866 2.18309 19.8608 2.05692C19.2246 1.86841 18.536 1.71789 17.8058 1.62371C15.8226 1.36794 13.8327 1.55935 11.9359 2.3414C10.1596 3.08681 8.91109 4.07818 7.71425 5.35912C7.55392 5.52878 7.4021 5.69886 7.25708 5.87102C6.7128 6.51715 6.26632 7.18483 5.74906 8.09838C5.53482 8.47676 5.39924 8.72748 4.93763 9.59139C4.13221 11.1164 3.4168 12.7593 2.81628 14.5396C2.75737 14.7143 2.63683 14.8615 2.47718 14.9538C2.19421 15.1175 1.96029 15.3208 1.77558 15.6345C1.56582 15.9919 1.5056 16.3383 1.52111 16.6792C1.51018 17.7472 1.59093 18.827 1.78159 19.9412C1.93697 20.824 2.14384 21.6445 2.39313 22.3977C2.58653 22.8253 2.80097 23.1623 3.03313 23.4407C3.05453 23.467 3.07618 23.493 3.10491 23.5269C3.159 23.5907 3.17086 23.6047 3.18279 23.6189C3.2153 23.6577 3.24298 23.6915 3.27038 23.7262C3.33996 23.8143 3.40259 23.9021 3.46832 24.0061C3.74647 24.4531 3.87789 24.9027 3.93568 25.4031C4.02158 27.0755 4.03532 28.7382 3.9727 30.4375C3.92041 31.8304 3.81851 33.1815 3.6705 34.4831L46.4053 34.4831C45.1115 33.1954 43.7817 32.1008 42.3904 31.128Z" fill="#EFEFEF"/>
<path fill-rule="evenodd" clip-rule="evenodd" d="M42.3904 31.128C41.8532 30.7523 41.325 30.4073 40.7651 30.0608C40.5507 29.9281 40.3403 29.8005 40.0926 29.6522C40.0159 29.6062 39.6263 29.374 39.5283 29.3151C36.8159 27.6893 34.0807 25.6835 31.1629 23.0157C30.971 22.8403 30.8824 22.579 30.928 22.3232C31.0734 21.5079 31.1704 20.6437 31.2097 19.751C31.2659 18.2814 31.1509 16.8753 30.9029 15.5535C30.7303 14.9435 30.4411 14.3277 29.9888 13.7411C29.4165 12.9971 28.7415 12.5 28.0175 12.1535C27.7979 12.0484 27.6421 11.8445 27.5986 11.6052C27.5823 11.5156 27.5732 11.47 27.5309 11.2609C27.4973 11.095 27.4778 10.9947 27.4585 10.8845C27.2041 9.63735 26.9704 8.56574 26.7322 7.56906C26.2891 6.80047 25.7432 6.03484 24.9931 5.24347C23.8688 4.0573 22.5132 3.08486 20.8965 2.41881C20.6132 2.30171 20.2866 2.18309 19.8608 2.05692C19.2246 1.86841 18.536 1.71789 17.8058 1.62371C15.8226 1.36794 13.8327 1.55935 11.9359 2.3414C10.1596 3.08681 8.91109 4.07818 7.71425 5.35912C7.55392 5.52878 7.4021 5.69886 7.25708 5.87102C6.7128 6.51715 6.26632 7.18483 5.74906 8.09838C5.53482 8.47676 5.39924 8.72748 4.93763 9.59139C4.13221 11.1164 3.4168 12.7593 2.81628 14.5396C2.75737 14.7143 2.63683 14.8615 2.47718 14.9538C2.19421 15.1175 1.96029 15.3208 1.77558 15.6345C1.56582 15.9919 1.5056 16.3383 1.52111 16.6792C1.51018 17.7472 1.59093 18.827 1.78159 19.9412C1.93697 20.824 2.14384 21.6445 2.39313 22.3977C2.58653 22.8253 2.80097 23.1623 3.03313 23.4407C3.05453 23.467 3.07618 23.493 3.10491 23.5269C3.159 23.5907 3.17086 23.6047 3.18279 23.6189C3.2153 23.6577 3.24298 23.6915 3.27038 23.7262C3.33996 23.8143 3.40259 23.9021 3.46832 24.0061C3.74647 24.4531 3.87789 24.9027 3.93568 25.4031C4.02158 27.0755 4.03532 28.7382 3.9727 30.4375C3.92041 31.8304 3.81851 33.1815 3.6705 34.4831L46.4053 34.4831C45.1115 33.1954 43.7817 32.1008 42.3904 31.128Z" fill="white" fill-opacity="0.5"/>
<path d="M12.6721 31.1622C13.5017 31.1677 14.2953 31.3337 15.0781 31.7982C15.3674 31.9722 15.6216 32.1672 15.8495 32.3814C16.1114 32.6275 16.1242 33.0392 15.878 33.301C15.6318 33.5628 15.2199 33.5756 14.958 33.3295C14.7955 33.1768 14.6145 33.038 14.4104 32.9152C13.8499 32.5826 13.261 32.4632 12.6292 32.4632H12.5875L12.5462 32.4579C11.94 32.38 11.4557 32.3029 10.9196 32.1877C10.8879 32.1808 10.8316 32.1681 10.7541 32.1499C10.6266 32.1198 10.485 32.0848 10.3327 32.0451C9.89655 31.9314 9.45995 31.8023 9.04925 31.6594C8.96953 31.6316 8.89141 31.6036 8.81331 31.5745C7.19773 30.9691 4.84068 29.3242 2.68191 27.131C2.4298 26.8749 2.43315 26.4629 2.68938 26.2109C2.94562 25.9589 3.3577 25.9623 3.60981 26.2184C5.64428 28.2854 7.84776 29.8231 9.26859 30.3555C9.33635 30.3807 9.40597 30.4057 9.47729 30.4306C9.85164 30.5608 10.2562 30.6804 10.6612 30.786C10.8032 30.823 10.935 30.8556 11.0528 30.8834C11.0937 30.893 11.1298 30.9014 11.1607 30.9083C11.676 31.0193 12.1178 31.0903 12.6721 31.1622Z" fill="#D1D1D1"/>
<path d="M11.607 11.1687C12.2062 11.1687 12.6918 10.1492 12.6918 8.89156C12.6918 7.63395 12.2062 6.61446 11.607 6.61446C11.0079 6.61446 10.5223 7.63395 10.5223 8.89156C10.5223 10.1492 11.0079 11.1687 11.607 11.1687Z" fill="#D1D1D1"/>
<path d="M24.9497 11.2771C25.5488 11.2771 26.0345 10.2576 26.0345 8.99999C26.0345 7.74238 25.5488 6.72289 24.9497 6.72289C24.3506 6.72289 23.8649 7.74238 23.8649 8.99999C23.8649 10.2576 24.3506 11.2771 24.9497 11.2771Z" fill="#D1D1D1"/>
<path fill-rule="evenodd" clip-rule="evenodd" d="M20.9865 22.5193C21.2017 22.0807 21.3317 21.6431 21.4728 21.0211L21.494 20.9266C21.5514 20.6883 21.5808 20.5396 21.6336 20.2417C21.666 20.037 21.7086 19.8342 21.7856 19.5279C21.8608 19.2339 21.9444 18.9731 22.0616 18.6557C22.0786 18.6097 22.0961 18.563 22.1157 18.5112C22.133 18.4655 22.1519 18.4159 22.1737 18.3594C22.169 18.3715 22.2678 18.115 22.2967 18.0392C22.5659 17.3492 22.8828 16.6417 23.2407 15.9297L23.2728 15.8658L23.2902 15.7964C23.3493 15.5617 23.3886 15.3206 23.4155 15.0525C23.4393 14.7807 23.4354 14.6315 23.4058 14.2634C23.3956 14.1315 23.3851 13.9651 23.3746 13.7667C23.3692 13.6028 23.3693 13.4971 23.3726 13.3339C23.3745 13.2435 23.3748 13.2281 23.3752 13.1546L23.375 12.6405C23.3637 12.1549 23.3297 11.6587 23.2731 11.1519L23.2651 11.0806L23.2417 11.0127C23.0937 10.5833 22.8961 10.1777 22.6386 9.78123C22.3614 9.38016 22.0366 9.0228 21.6679 8.71712L21.4859 8.56627L18.0424 8.56667L17.7748 8.576L17.5054 8.58554C16.9528 8.60542 16.5515 8.62242 16.1525 8.64487L16.2117 8.6422C16.1472 8.64536 16.1154 8.64816 16.1052 8.64909L16.074 8.65202L16.0445 8.65503C15.9915 8.66066 15.9418 8.66731 15.8907 8.67607C15.7558 8.6992 15.6253 8.73499 15.4938 8.78885C15.3746 8.83961 15.2644 8.90051 15.1619 8.96844L14.9409 9.1151L14.8851 9.3736C14.8422 9.57306 14.8118 9.7327 14.79 9.88435C14.7128 10.4028 14.6853 10.8486 14.6853 11.2889C14.6754 12.1869 14.6652 12.7552 14.6529 13.1451C14.6416 13.5825 14.6416 13.7663 14.6527 14.2752C14.6994 15.6815 14.8164 17.0413 15.0085 18.3369L15.0178 18.3995L15.039 18.4592C15.4218 19.5343 15.9063 20.589 16.4716 21.5789C16.8488 22.2545 17.3039 22.9477 17.8124 23.6301L17.8471 23.6766L17.8895 23.7164C18.1254 23.9373 18.4025 24.1187 18.7105 24.258L18.7417 24.2721L18.7743 24.2829C18.7977 24.2907 18.8179 24.2976 18.8472 24.3077L18.9052 24.328C18.9429 24.3413 18.9702 24.3508 18.9941 24.359C19.0164 24.3667 19.0357 24.3732 19.0578 24.3805L19.4362 24.506L19.7216 24.2288C20.2351 23.7301 20.6575 23.1618 20.9865 22.5193ZM16.2116 9.94386V9.29303L16.2478 9.94221L16.2116 9.94386ZM19.8132 21.9432C19.9699 21.6226 20.0773 21.2602 20.1962 20.7366L20.218 20.639C20.231 20.5849 20.2423 20.5366 20.2527 20.4904C20.2645 20.4378 20.2752 20.388 20.2857 20.336C20.3031 20.2493 20.3203 20.1563 20.3421 20.0331C20.3809 19.7901 20.4311 19.5512 20.517 19.2095C20.6049 18.8657 20.7019 18.5634 20.8335 18.2069C20.8677 18.1143 20.9033 18.0205 20.9515 17.8948C20.9474 17.9055 21.0455 17.6507 21.0754 17.5726C21.3527 16.8615 21.6748 16.1398 22.0367 15.415C22.0707 15.2657 22.0953 15.1063 22.1129 14.9314C22.1282 14.7563 22.1259 14.669 22.1015 14.3652C22.0902 14.2184 22.0789 14.0397 22.0678 13.8288C22.0607 13.6221 22.0607 13.4939 22.0646 13.3072C22.0663 13.224 22.0665 13.2104 22.0668 13.1786L22.0668 12.6633C22.0568 12.2417 22.0281 11.8102 21.9807 11.3689C21.8711 11.0666 21.7293 10.7808 21.5551 10.5108C21.3907 10.2741 21.2057 10.0591 21.0015 9.86792H18.0768L17.8209 9.87685L17.5527 9.88634C17.0136 9.90573 16.6222 9.92227 16.2597 9.94221L16.2131 9.94662L16.1884 9.94917C16.1658 9.95155 16.1463 9.95387 16.1292 9.95627C16.1196 9.9576 16.1108 9.95895 16.1025 9.96034C16.0991 9.98024 16.0958 9.99963 16.0928 10.0186C16.09 10.0367 16.0873 10.0544 16.0848 10.0718C16.0174 10.5244 15.9937 10.9081 15.9937 11.296C15.9837 12.2091 15.9733 12.7854 15.9608 13.1821C15.9502 13.5944 15.9502 13.7578 15.9607 14.2395C16.0048 15.5683 16.1145 16.8579 16.2936 18.0841C16.6473 19.0665 17.0924 20.0309 17.6123 20.9413C17.9542 21.5537 18.3652 22.1821 18.8259 22.8042C18.9064 22.8743 18.9969 22.9379 19.0966 22.9942C19.3789 22.6736 19.6182 22.3231 19.8132 21.9432ZM19.1882 23.048L19.0291 23.5229L19.0409 23.535L19.252 23.073L19.2239 23.06L19.1882 23.048Z" fill="#D1D1D1"/>
</svg>
