<?xml version="1.0" encoding="UTF-8" standalone="no"?>
<svg width="17px" height="17px" viewBox="0 0 17 17" version="1.1" xmlns="http://www.w3.org/2000/svg" xmlns:xlink="http://www.w3.org/1999/xlink">
    <!-- Generator: Sketch 47.1 (45422) - http://www.bohemiancoding.com/sketch -->
    <title>channel_icon</title>
    <desc>Created with Sketch.</desc>
    <defs></defs>
    <g id="Symbols" stroke="none" stroke-width="1" fill="none" fill-rule="evenodd" opacity="0.5">
        <g id="Channel" fill="#FFFFFF">
            <g id="Icon-Comment">
                <g>
                    <path d="M3.5,16.9575 L2.5955,16.9575 L3.128,16.1808125 C3.531,15.5937812 3.7945,14.84525 3.9295,13.9001562 C1.4175,12.7069687 0.04,10.4257812 0.04,7.4375 C0.04,2.8761875 3.282,0.0425 8.5,0.0425 C13.718,0.0425 16.96,2.8761875 16.96,7.4375 C16.96,12.067875 13.7975,14.8325 8.5,14.8325 C8.382,14.8325 8.2655,14.8293125 8.1495,14.8245312 C7.355,15.841875 5.9295,16.9575 3.5,16.9575 L3.5,16.9575 Z M8.5,1.02 C3.779,1.02 0.96,3.419125 0.96,7.4375 C0.96,10.8847812 2.94,12.4413437 4.601,13.1399375 L4.9275,13.2775312 L4.8885,13.648875 C4.7965,14.5296875 4.6125,15.283 4.3295,15.926875 C6.028,15.7021562 7.018,14.8022187 7.5675,14.031375 L7.7125,13.8279062 L8.021,13.8411875 C8.1795,13.8480937 8.3385,13.855 8.5,13.855 C15.305,13.855 16.04,9.367 16.04,7.4375 C16.04,3.419125 13.221,1.02 8.5,1.02 L8.5,1.02 Z" id="Comment"></path>
                </g>
            </g>
        </g>
    </g>
</svg>