<?xml version="1.0" encoding="UTF-8" standalone="no"?>
<svg width="40px" height="48px" viewBox="0 0 40 48" version="1.1" xmlns="http://www.w3.org/2000/svg" xmlns:xlink="http://www.w3.org/1999/xlink">
    <!-- Generator: Sketch 47.1 (45422) - http://www.bohemiancoding.com/sketch -->
    <title>logo</title>
    <desc>Created with Sketch.</desc>
    <defs></defs>
    <g id="Desktop" stroke="none" stroke-width="1" fill="none" fill-rule="evenodd">
        <g transform="translate(-20.000000, -16.000000)" id="Aside">
            <g>
                <g id="Side-Menu-Top">
                    <g id="Tagview-Logo" transform="translate(20.000000, 16.000000)">
                        <g id="tagview-logo">
                            <path d="M17.5203661,21.1764706 C17.5203661,21.1764706 21.8280686,27.3772589 2.66666667,29.3902372 C4.16921888,29.9192584 10.6587662,29.756206 14.9209618,27.6988679 C18.7843523,25.8342553 19.6743552,23.1091216 17.5203661,21.1764706 Z" id="Shape" fill="#FEE600"></path>
                            <path d="M12.9045507,6.48584615 C12.9598856,6.428 13.0143648,6.37476923 13.0691293,6.31938462 C12.9621675,6.41938462 12.9045507,6.48584615 12.9045507,6.48584615 Z M11.4050883,19.2421538 C10.6757511,19.1716923 10.1457909,19.1566154 10.1457909,19.1566154 C10.4412908,19.1923077 10.8853963,19.2147692 11.4050883,19.2421538 Z M38.6666667,0 C38.6666667,0 32.1285885,1.48184615 20.7963379,7.90215385 C19.0849485,4.05046154 16.6176953,2.73353846 13.0688441,6.31938462 C13.7636682,5.66707692 16.5492398,3.568 19.2098799,8.81538462 C15.8709591,10.7676923 12.1535359,13.1286154 8.09497583,15.9806154 C-8.21941465,28.2818462 3.68158765,29.9166154 12.8144175,24.4526154 C20.668269,19.7532308 14.5999672,19.4089231 11.4050883,19.2421538 C14.2662462,19.5178462 20.1979221,20.6418462 9.26014682,25.0283077 C-4.46548187,30.5335385 3.34587008,19.8778462 18.527606,10.7163077 C18.9426179,10.4661538 19.3470763,10.2233846 19.746971,9.98430769 C21.9649317,15.2738462 23.9883645,26.1938462 24.4935096,48 C24.4935096,48 25.4125258,20.4836923 21.2678257,9.07938462 C34.1354778,1.47476923 38.6666667,0 38.6666667,0 Z" id="Shape" fill="#ED1F24"></path>
                            <path d="M24.5518931,11.2941176 C35.9266544,4.24005686 40,2.82352941 40,2.82352941 C40,2.82352941 34.1813466,4.23208204 24,10.1377687" id="Shape" fill="#FEE600"></path>
                        </g>
                    </g>
                </g>
            </g>
        </g>
    </g>
</svg>